<mxfile host="drawio-plugin" modified="2021-07-13T01:24:34.279Z" agent="5.0 (Macintosh; Intel Mac OS X 11_2_2) AppleWebKit/537.36 (KHTML, like Gecko) Chrome/87.0.4280.141 Safari/537.36" etag="1D_MLjwtw1HcKwsd2rcL" version="14.7.4" type="embed"><diagram id="23iRSUPoRavnBvh4doch" name="Page-1"><mxGraphModel dx="788" dy="395" grid="1" gridSize="10" guides="1" tooltips="1" connect="1" arrows="1" fold="1" page="1" pageScale="1" pageWidth="827" pageHeight="1169" math="0" shadow="0"><root><mxCell id="0"/><mxCell id="1" parent="0"/><mxCell id="2" value="Client" style="swimlane;fontStyle=1;align=center;verticalAlign=top;childLayout=stackLayout;horizontal=1;startSize=26;horizontalStack=0;resizeParent=1;resizeParentMax=0;resizeLast=0;collapsible=1;marginBottom=0;" parent="1" vertex="1"><mxGeometry x="70" y="237" width="160" height="86" as="geometry"/></mxCell><mxCell id="3" value=" " style="text;strokeColor=none;fillColor=none;align=left;verticalAlign=top;spacingLeft=4;spacingRight=4;overflow=hidden;rotatable=0;points=[[0,0.5],[1,0.5]];portConstraint=eastwest;" parent="2" vertex="1"><mxGeometry y="26" width="160" height="26" as="geometry"/></mxCell><mxCell id="4" value="" style="line;strokeWidth=1;fillColor=none;align=left;verticalAlign=middle;spacingTop=-1;spacingLeft=3;spacingRight=3;rotatable=0;labelPosition=right;points=[];portConstraint=eastwest;" parent="2" vertex="1"><mxGeometry y="52" width="160" height="8" as="geometry"/></mxCell><mxCell id="5" value=" " style="text;strokeColor=none;fillColor=none;align=left;verticalAlign=top;spacingLeft=4;spacingRight=4;overflow=hidden;rotatable=0;points=[[0,0.5],[1,0.5]];portConstraint=eastwest;" parent="2" vertex="1"><mxGeometry y="60" width="160" height="26" as="geometry"/></mxCell><mxCell id="10" value="ConcretePrototype_01" style="swimlane;fontStyle=1;align=center;verticalAlign=top;childLayout=stackLayout;horizontal=1;startSize=26;horizontalStack=0;resizeParent=1;resizeParentMax=0;resizeLast=0;collapsible=1;marginBottom=0;" parent="1" vertex="1"><mxGeometry x="270" y="470" width="160" height="86" as="geometry"/></mxCell><mxCell id="11" value=" " style="text;strokeColor=none;fillColor=none;align=left;verticalAlign=top;spacingLeft=4;spacingRight=4;overflow=hidden;rotatable=0;points=[[0,0.5],[1,0.5]];portConstraint=eastwest;" parent="10" vertex="1"><mxGeometry y="26" width="160" height="26" as="geometry"/></mxCell><mxCell id="12" value="" style="line;strokeWidth=1;fillColor=none;align=left;verticalAlign=middle;spacingTop=-1;spacingLeft=3;spacingRight=3;rotatable=0;labelPosition=right;points=[];portConstraint=eastwest;" parent="10" vertex="1"><mxGeometry y="52" width="160" height="8" as="geometry"/></mxCell><mxCell id="13" value="+ createClone " style="text;strokeColor=none;fillColor=none;align=left;verticalAlign=top;spacingLeft=4;spacingRight=4;overflow=hidden;rotatable=0;points=[[0,0.5],[1,0.5]];portConstraint=eastwest;" parent="10" vertex="1"><mxGeometry y="60" width="160" height="26" as="geometry"/></mxCell><mxCell id="14" value="Extends" style="endArrow=block;endSize=16;endFill=0;html=1;exitX=0.5;exitY=0;exitDx=0;exitDy=0;entryX=0.25;entryY=1;entryDx=0;entryDy=0;" parent="1" source="10" target="19" edge="1"><mxGeometry width="160" relative="1" as="geometry"><mxPoint x="550" y="310" as="sourcePoint"/><mxPoint x="454.96000000000004" y="296" as="targetPoint"/></mxGeometry></mxCell><mxCell id="15" value="Use" style="endArrow=open;endSize=12;dashed=1;html=1;exitX=1;exitY=0.5;exitDx=0;exitDy=0;" parent="1" source="3" target="19" edge="1"><mxGeometry width="160" relative="1" as="geometry"><mxPoint x="290" y="340" as="sourcePoint"/><mxPoint x="368.0799999999999" y="259.01" as="targetPoint"/></mxGeometry></mxCell><mxCell id="16" value="原型" style="text;html=1;align=center;verticalAlign=middle;resizable=0;points=[];autosize=1;strokeColor=none;" parent="1" vertex="1"><mxGeometry x="590" y="220" width="40" height="20" as="geometry"/></mxCell><mxCell id="17" value="具体的原型" style="text;html=1;align=center;verticalAlign=middle;resizable=0;points=[];autosize=1;strokeColor=none;" parent="1" vertex="1"><mxGeometry x="120" y="490" width="80" height="20" as="geometry"/></mxCell><mxCell id="18" value="&lt;h1&gt;原型模式（创建者）&lt;/h1&gt;&lt;p style=&quot;margin: 0.5em 0px ; color: rgb(32 , 33 , 34) ; font-family: sans-serif ; background-color: rgb(255 , 255 , 255)&quot;&gt;&lt;font style=&quot;font-size: 12px&quot;&gt;&lt;b&gt;原型模式&lt;/b&gt;是&lt;a href=&quot;https://zh.wikipedia.org/wiki/%E5%89%B5%E5%BB%BA%E5%9E%8B%E6%A8%A1%E5%BC%8F&quot; title=&quot;创建型模式&quot; style=&quot;color: rgb(6 , 69 , 173) ; background: none&quot;&gt;创建型模式&lt;/a&gt;的一种，其特点在于通过“复制”一个已经存在的&lt;a href=&quot;https://zh.wikipedia.org/wiki/%E5%AE%9E%E4%BE%8B&quot; class=&quot;mw-redirect&quot; title=&quot;实例&quot; style=&quot;color: rgb(6 , 69 , 173) ; background: none&quot;&gt;实例&lt;/a&gt;来返回新的实例,而不是新建实例。被复制的实例就是我们所称的“原型”，这个原型是可定制的。&lt;/font&gt;&lt;/p&gt;&lt;p style=&quot;margin: 0.5em 0px ; color: rgb(32 , 33 , 34) ; font-family: sans-serif ; background-color: rgb(255 , 255 , 255)&quot;&gt;&lt;font style=&quot;font-size: 12px&quot;&gt;原型模式多用于创建复杂的或者耗时的实例，因为这种情况下，复制一个已经存在的实例使程序运行更高效；或者创建值相等，只是命名不一样的同类数据。&lt;/font&gt;&lt;/p&gt;&lt;p style=&quot;margin: 0.5em 0px ; color: rgb(32 , 33 , 34) ; font-family: sans-serif ; background-color: rgb(255 , 255 , 255)&quot;&gt;Java中的clone方法需要实现Clonable接口，且该克隆是浅拷贝，值复制引用&lt;/p&gt;" style="text;html=1;strokeColor=none;fillColor=none;spacing=5;spacingTop=-20;whiteSpace=wrap;overflow=hidden;rounded=0;" vertex="1" parent="1"><mxGeometry x="40" y="10" width="700" height="140" as="geometry"/></mxCell><mxCell id="19" value="&lt;p style=&quot;margin: 0px ; margin-top: 4px ; text-align: center&quot;&gt;&lt;i&gt;&amp;lt;&amp;lt;Interface&amp;gt;&amp;gt;&lt;/i&gt;&lt;br&gt;&lt;b&gt;Prototype&lt;/b&gt;&lt;/p&gt;&lt;hr size=&quot;1&quot;&gt;&lt;p style=&quot;margin: 0px ; margin-left: 4px&quot;&gt;&lt;br&gt;&lt;/p&gt;&lt;hr size=&quot;1&quot;&gt;&lt;p style=&quot;margin: 0px ; margin-left: 4px&quot;&gt;+ createClone()&lt;/p&gt;" style="verticalAlign=top;align=left;overflow=fill;fontSize=12;fontFamily=Helvetica;html=1;" vertex="1" parent="1"><mxGeometry x="370" y="210" width="190" height="100" as="geometry"/></mxCell><mxCell id="20" value="ConcretePrototype_02" style="swimlane;fontStyle=1;align=center;verticalAlign=top;childLayout=stackLayout;horizontal=1;startSize=26;horizontalStack=0;resizeParent=1;resizeParentMax=0;resizeLast=0;collapsible=1;marginBottom=0;" vertex="1" parent="1"><mxGeometry x="500" y="470" width="160" height="86" as="geometry"/></mxCell><mxCell id="21" value=" " style="text;strokeColor=none;fillColor=none;align=left;verticalAlign=top;spacingLeft=4;spacingRight=4;overflow=hidden;rotatable=0;points=[[0,0.5],[1,0.5]];portConstraint=eastwest;" vertex="1" parent="20"><mxGeometry y="26" width="160" height="26" as="geometry"/></mxCell><mxCell id="22" value="" style="line;strokeWidth=1;fillColor=none;align=left;verticalAlign=middle;spacingTop=-1;spacingLeft=3;spacingRight=3;rotatable=0;labelPosition=right;points=[];portConstraint=eastwest;" vertex="1" parent="20"><mxGeometry y="52" width="160" height="8" as="geometry"/></mxCell><mxCell id="23" value="+ createClone " style="text;strokeColor=none;fillColor=none;align=left;verticalAlign=top;spacingLeft=4;spacingRight=4;overflow=hidden;rotatable=0;points=[[0,0.5],[1,0.5]];portConstraint=eastwest;" vertex="1" parent="20"><mxGeometry y="60" width="160" height="26" as="geometry"/></mxCell><mxCell id="24" value="Extends" style="endArrow=block;endSize=16;endFill=0;html=1;exitX=0.5;exitY=0;exitDx=0;exitDy=0;entryX=0.5;entryY=1;entryDx=0;entryDy=0;" edge="1" parent="1" source="20" target="19"><mxGeometry width="160" relative="1" as="geometry"><mxPoint x="580" y="410" as="sourcePoint"/><mxPoint x="740" y="410" as="targetPoint"/></mxGeometry></mxCell><mxCell id="25" value="return" style="html=1;verticalAlign=bottom;endArrow=open;dashed=1;endSize=8;exitX=0;exitY=0.5;exitDx=0;exitDy=0;" edge="1" parent="1" source="13" target="27"><mxGeometry relative="1" as="geometry"><mxPoint x="240" y="620" as="sourcePoint"/><mxPoint x="160" y="620" as="targetPoint"/></mxGeometry></mxCell><mxCell id="27" value="Return a copy of concretePrototype_01." style="text;html=1;align=center;verticalAlign=middle;resizable=0;points=[];autosize=1;strokeColor=none;" vertex="1" parent="1"><mxGeometry x="70" y="600" width="230" height="20" as="geometry"/></mxCell></root></mxGraphModel></diagram></mxfile>